# xmcd CD database file
#
# Track frame offsets:
#	182
#	107992
#	137832
#	160082
#	197775
#	241857
#	260570
#
# Disc length: 3745 seconds
#
# Revision: 2
# Processed by: cddbd v1.5.2PL0 Copyright (c) Steve Scherf et al.
# Submitted via: CDex 1.51
#
DISCID=5f0e9f07
DTITLE=Modern Jazz Quartet - Vol. 219 - Immortal Concerts ''fontessa'' 1960
DYEAR=1960
DGENRE=Jazz
TTITLE0=The Little Comedy
TTITLE1=Cylinder
TTITLE2=A Social Call
TTITLE3=High How The Moon
TTITLE4=Columbia - Pulcinella
TTITLE5=Piazza di Spagna
TTITLE6=One Never Knows
EXTD=YEAR: 1960
EXTT0=
EXTT1=
EXTT2=
EXTT3=
EXTT4=
EXTT5=
EXTT6=
PLAYORDER=
